<?xml version="1.0" encoding="UTF-8" standalone="no"?>
<svg
   width="105mm"
   height="33mm"
   viewBox="0 0 105 33"
   version="1.1"
   id="svg1761"
   inkscape:version="1.1 (c68e22c387, 2021-05-23)"
   sodipodi:docname="htw_logo - Kopie.svg"
   xmlns:inkscape="http://www.inkscape.org/namespaces/inkscape"
   xmlns:sodipodi="http://sodipodi.sourceforge.net/DTD/sodipodi-0.dtd"
   xmlns:xlink="http://www.w3.org/1999/xlink"
   xmlns="http://www.w3.org/2000/svg"
   xmlns:svg="http://www.w3.org/2000/svg"
   xmlns:rdf="http://www.w3.org/1999/02/22-rdf-syntax-ns#"
   xmlns:cc="http://creativecommons.org/ns#"
   xmlns:dc="http://purl.org/dc/elements/1.1/">
  <defs
     id="defs1755">
    <clipPath
       clipPathUnits="userSpaceOnUse"
       id="clipPath974">
      <use
         x="0"
         y="0"
         xlink:href="#g970"
         id="use976"
         width="100%"
         height="100%" />
    </clipPath>
    <clipPath
       clipPathUnits="userSpaceOnUse"
       id="clipPath2483">
      <rect
         style="fill:#ebebeb;stroke-width:0.226;stroke-linecap:round;stroke-linejoin:round"
         id="rect2485"
         width="104.46398"
         height="32.32687"
         x="-13.300022"
         y="78.951103" />
    </clipPath>
  </defs>
  <sodipodi:namedview
     id="base"
     pagecolor="#ffffff"
     bordercolor="#666666"
     borderopacity="1.0"
     inkscape:pageopacity="0.0"
     inkscape:pageshadow="2"
     inkscape:zoom="1.4"
     inkscape:cx="480.35714"
     inkscape:cy="200"
     inkscape:document-units="mm"
     inkscape:current-layer="layer1"
     inkscape:document-rotation="0"
     showgrid="false"
     fit-margin-top="0"
     fit-margin-left="0"
     fit-margin-right="0"
     fit-margin-bottom="0"
     inkscape:window-width="3072"
     inkscape:window-height="1634"
     inkscape:window-x="2293"
     inkscape:window-y="-11"
     inkscape:window-maximized="1"
     inkscape:pagecheckerboard="0" />
  <metadata
     id="metadata1758">
    <rdf:RDF>
      <cc:Work
         rdf:about="">
        <dc:format>image/svg+xml</dc:format>
        <dc:type
           rdf:resource="http://purl.org/dc/dcmitype/StillImage" />
      </cc:Work>
    </rdf:RDF>
  </metadata>
  <g
     inkscape:label="Ebene 1"
     inkscape:groupmode="layer"
     id="layer1"
     transform="translate(13.300022,-78.951107)">
    <g
       id="g972"
       clip-path="url(#clipPath2483)"
       transform="translate(0.26800928,0.33656695)">
      <g
         inkscape:label="Clip"
         id="g970">
        <g
           inkscape:export-ydpi="300"
           inkscape:export-xdpi="300"
           transform="matrix(0.15118979,0,0,-0.15205632,-45.419537,151.66672)"
           id="g4146">
          <path
             style="color:#000000;fill:#76b900;-inkscape-stroke:none"
             d="m 1009.9,425.195 h 12.17 v -25.476 h 18.82 v 25.476 h 12.17 v -62.074 h -12.17 v 25.762 h -18.82 v -25.762 h -12.17 v 62.074"
             id="path4148" />
          <path
             style="color:#000000;fill:#76b900;-inkscape-stroke:none"
             d="m 1090.95,378.422 c 0.67,2.859 0.67,5.711 0.67,8.562 0,2.754 0,5.793 -0.67,8.645 -0.76,3.043 -3.14,5.703 -7.32,5.703 -4.09,0 -6.65,-2.562 -7.32,-5.984 -0.47,-2.571 -0.57,-5.61 -0.57,-8.364 0,-2.851 0.1,-5.703 0.57,-8.273 0.67,-3.422 3.23,-5.992 7.32,-5.992 4.18,0 6.56,2.664 7.32,5.703 z M 1065,375.953 c -0.76,3.141 -0.86,5.801 -0.86,11.031 0,5.129 0.1,7.793 0.86,10.93 1.9,8.078 9.12,13.785 18.82,13.785 9.69,0 16.64,-5.707 18.63,-13.785 0.76,-3.137 0.86,-5.801 0.86,-10.93 0,-5.23 -0.1,-7.89 -0.86,-11.031 -1.89,-7.984 -9.22,-13.785 -19.01,-13.785 -9.6,0 -16.45,5.801 -18.44,13.785"
             id="path4150" />
          <path
             style="color:#000000;fill:#76b900;-inkscape-stroke:none"
             d="m 1113.46,375.953 c -0.77,3.141 -0.96,5.801 -0.96,11.031 0,5.129 0.19,7.891 0.96,11.121 1.89,7.985 8.07,13.594 17.87,13.594 9.12,0 15.49,-3.902 17.39,-12.738 0.38,-1.906 0.58,-3.902 0.58,-6.184 v -1.425 h -11.51 v 0.761 c 0,1.336 0,2.188 -0.1,2.946 -0.56,4.183 -2.75,6.273 -6.65,6.273 -4.09,0 -5.89,-2.469 -6.56,-6.555 -0.28,-1.711 -0.28,-5.039 -0.28,-7.793 0,-2.851 0,-5.613 0.28,-7.32 0.76,-4.184 2.95,-6.945 7.41,-6.945 4.48,0 7.42,2.761 9.32,6.375 l 7.79,-7.512 c -3.51,-6.273 -10.36,-9.414 -17.29,-9.414 -10.28,0 -16.36,5.703 -18.25,13.785"
             id="path4152" />
          <path
             style="color:#000000;fill:#76b900;-inkscape-stroke:none"
             d="m 1170.64,363.121 h -11.69 v 65.496 h 11.69 v -21.008 c 2.09,2.286 5.42,4.09 9.8,4.09 9.6,0 15.58,-6.562 15.58,-16.258 v -32.32 h -11.78 v 30.801 c 0,4.469 -2.29,7.035 -6.75,7.035 -3.99,0 -6.85,-2.566 -6.85,-7.035 v -30.801"
             id="path4154" />
          <path
             style="color:#000000;fill:#76b900;-inkscape-stroke:none"
             d="m 1227.56,390.59 c 6.83,-2.563 11.87,-5.32 11.87,-14.258 0,-8.269 -6.75,-14.164 -16.63,-14.164 -8.84,0 -15.4,3.902 -18.15,10.078 l 8.36,6.938 c 2.38,-3.895 5.32,-6.465 9.98,-6.465 2.47,0 4.47,1.051 4.47,3.332 0,2.66 -1.62,3.324 -5.7,4.847 l -3.71,1.329 c -8.74,3.234 -11.6,7.511 -11.6,14.828 0,8.371 6.94,14.644 16.45,14.644 11.41,0 16.35,-5.898 16.35,-14.832 0,-0.758 0,-1.519 -0.1,-2.281 h -11.69 c 0.1,0.473 0.1,1.043 0.1,1.426 0,4.375 -2.47,5.32 -4.86,5.32 -3.03,0 -4.56,-2.09 -4.56,-4.18 0,-2.468 2,-3.8 5.89,-5.226 l 3.53,-1.336"
             id="path4156" />
          <path
             style="color:#000000;fill:#76b900;-inkscape-stroke:none"
             d="m 1249.49,375.953 c -0.76,3.141 -0.96,5.801 -0.96,11.031 0,5.129 0.2,7.891 0.96,11.121 1.9,7.985 8.08,13.594 17.87,13.594 9.12,0 15.49,-3.902 17.39,-12.738 0.39,-1.906 0.58,-3.902 0.58,-6.184 v -1.425 h -11.5 v 0.761 c 0,1.336 0,2.188 -0.1,2.946 -0.57,4.183 -2.75,6.273 -6.65,6.273 -4.09,0 -5.9,-2.469 -6.56,-6.555 -0.29,-1.711 -0.29,-5.039 -0.29,-7.793 0,-2.851 0,-5.613 0.29,-7.32 0.76,-4.184 2.95,-6.945 7.41,-6.945 4.47,0 7.41,2.761 9.32,6.375 l 7.79,-7.512 c -3.52,-6.273 -10.36,-9.414 -17.3,-9.414 -10.27,0 -16.35,5.703 -18.25,13.785"
             id="path4158" />
          <path
             style="color:#000000;fill:#76b900;-inkscape-stroke:none"
             d="m 1306.21,363.121 h -11.69 v 65.496 h 11.69 v -21.008 c 2.09,2.286 5.42,4.09 9.79,4.09 9.6,0 15.59,-6.562 15.59,-16.258 v -32.32 h -11.79 v 30.801 c 0,4.469 -2.28,7.035 -6.74,7.035 -4,0 -6.85,-2.566 -6.85,-7.035 v -30.801"
             id="path4160" />
          <path
             style="color:#000000;fill:#76b900;-inkscape-stroke:none"
             d="m 1369.48,367.688 c -2.57,-3.711 -6.66,-5.52 -11.02,-5.52 -9.61,0 -15.4,6.562 -15.4,16.352 v 32.128 h 11.69 v -30.89 c 0,-4.188 2.18,-6.942 6.65,-6.942 4.09,0 6.94,2.754 6.94,6.942 v 30.89 h 11.69 v -47.527 h -9.88 l -0.67,4.567"
             id="path4162" />
          <path
             style="color:#000000;fill:#76b900;-inkscape-stroke:none"
             d="m 1404.53,375.098 c 0.66,-1.141 2,-1.707 3.81,-1.707 1.42,0 2.37,0.281 3.04,0.472 v -10.55 c -1.33,-0.286 -3.52,-0.477 -5.23,-0.477 -6.37,0 -10.94,2.852 -12.83,7.32 -0.86,2.09 -1.24,4.66 -1.24,7.223 v 51.238 h 11.79 v -50.949 c 0,-0.953 0.19,-1.809 0.66,-2.57"
             id="path4164" />
          <path
             style="color:#000000;fill:#76b900;-inkscape-stroke:none"
             d="m 1429.51,395.059 c -0.19,-0.856 -0.28,-1.993 -0.28,-3.325 h 14.06 c 0,1.805 -0.09,2.758 -0.19,3.325 -0.56,3.902 -2.66,6.273 -6.74,6.273 -4.19,0 -6.19,-2.277 -6.85,-6.273 z m 24.72,2.855 c 0.56,-2.375 0.66,-4.562 0.66,-8.078 0,-2.098 0,-4.566 -0.1,-7.418 h -25.56 c 0,-1.234 0.09,-2.281 0.28,-3.234 0.76,-4.086 3.23,-6.465 7.61,-6.465 3.42,0 6.84,0.859 9.7,5.613 l 7.59,-7.32 c -4.27,-6.274 -10.64,-8.844 -17.49,-8.844 -10.16,0 -16.54,5.801 -18.53,13.785 -0.76,3.141 -0.86,5.801 -0.86,11.031 0,5.129 0.1,7.793 0.86,10.93 1.99,8.176 8.37,13.785 18.15,13.785 9.6,0 15.78,-5.707 17.69,-13.785"
             id="path4166" />
          <path
             style="color:#000000;fill:#76b900;-inkscape-stroke:none"
             d="m 1500.28,400.387 v -37.266 h -11.69 v 37.266 h -5.32 v 10.261 h 5.32 v 3.997 c 0,9.316 5.71,14.925 14.08,14.925 4.74,0 7.59,-1.043 10.26,-2.66 l -3.71,-9.414 c -1.43,0.856 -2.85,1.234 -4.85,1.234 -2.38,0 -4.09,-1.707 -4.09,-4.656 v -3.426 h 9.42 v -10.261 h -9.42"
             id="path4168" />
          <path
             style="color:#000000;fill:#76b900;-inkscape-stroke:none"
             d="m 1539.34,422.063 c 0,3.515 2.85,6.464 6.65,6.464 3.61,0 6.66,-2.949 6.66,-6.464 0,-3.524 -3.05,-6.657 -6.66,-6.657 -3.8,0 -6.65,3.133 -6.65,6.657 z m -18.16,0 c 0,3.515 2.85,6.464 6.65,6.464 3.61,0 6.66,-2.949 6.66,-6.464 0,-3.524 -3.05,-6.657 -6.66,-6.657 -3.8,0 -6.65,3.133 -6.65,6.657 z m 23.57,-54.375 c -2.56,-3.711 -6.66,-5.52 -11.02,-5.52 -9.61,0 -15.4,6.562 -15.4,16.352 v 32.128 h 11.69 v -30.89 c 0,-4.188 2.19,-6.942 6.65,-6.942 4.09,0 6.94,2.754 6.94,6.942 v 30.89 h 11.69 v -47.527 h -9.88 l -0.67,4.567"
             id="path4170" />
          <path
             style="color:#000000;fill:#76b900;-inkscape-stroke:none"
             d="m 1579.52,363.121 h -11.69 v 47.527 h 9.88 l 0.67,-4.656 c 2.47,4.09 6.08,5.516 9.98,5.516 0.86,0 2.38,0 4.19,-0.285 v -11.504 c -2.95,0.57 -4.95,0.57 -6.18,0.57 -4,0 -6.85,-2.375 -6.85,-7.129 v -30.039"
             id="path4172" />
          <path
             style="color:#000000;fill:#76b900;-inkscape-stroke:none"
             d="m 1628.63,413.98 h -15.3 v 11.215 H 1656 V 413.98 h -15.2 v -50.859 h -12.17 v 50.859"
             id="path4174" />
          <path
             style="color:#000000;fill:#76b900;-inkscape-stroke:none"
             d="m 1668.25,395.059 c -0.19,-0.856 -0.28,-1.993 -0.28,-3.325 h 14.06 c 0,1.805 -0.09,2.758 -0.19,3.325 -0.56,3.902 -2.66,6.273 -6.74,6.273 -4.19,0 -6.18,-2.277 -6.85,-6.273 z m 24.72,2.855 c 0.56,-2.375 0.66,-4.562 0.66,-8.078 0,-2.098 0,-4.566 -0.1,-7.418 h -25.56 c 0,-1.234 0.09,-2.281 0.28,-3.234 0.76,-4.086 3.23,-6.465 7.61,-6.465 3.42,0 6.84,0.859 9.7,5.613 l 7.59,-7.32 c -4.27,-6.274 -10.64,-8.844 -17.49,-8.844 -10.16,0 -16.54,5.801 -18.53,13.785 -0.76,3.141 -0.86,5.801 -0.86,11.031 0,5.129 0.1,7.793 0.86,10.93 1.99,8.176 8.37,13.785 18.15,13.785 9.6,0 15.78,-5.707 17.69,-13.785"
             id="path4176" />
          <path
             style="color:#000000;fill:#76b900;-inkscape-stroke:none"
             d="m 1703.68,375.953 c -0.76,3.141 -0.96,5.801 -0.96,11.031 0,5.129 0.2,7.891 0.96,11.121 1.9,7.985 8.08,13.594 17.87,13.594 9.12,0 15.49,-3.902 17.39,-12.738 0.39,-1.906 0.58,-3.902 0.58,-6.184 v -1.425 h -11.5 v 0.761 c 0,1.336 0,2.188 -0.1,2.946 -0.57,4.183 -2.75,6.273 -6.65,6.273 -4.09,0 -5.9,-2.469 -6.56,-6.555 -0.29,-1.711 -0.29,-5.039 -0.29,-7.793 0,-2.851 0,-5.613 0.29,-7.32 0.76,-4.184 2.95,-6.945 7.41,-6.945 4.47,0 7.41,2.761 9.31,6.375 l 7.8,-7.512 c -3.52,-6.273 -10.36,-9.414 -17.3,-9.414 -10.27,0 -16.35,5.703 -18.25,13.785"
             id="path4178" />
          <path
             style="color:#000000;fill:#76b900;-inkscape-stroke:none"
             d="m 1760.87,363.121 h -11.69 v 65.496 h 11.69 v -21.008 c 2.09,2.286 5.42,4.09 9.79,4.09 9.6,0 15.59,-6.562 15.59,-16.258 v -32.32 h -11.79 v 30.801 c 0,4.469 -2.28,7.035 -6.75,7.035 -3.99,0 -6.84,-2.566 -6.84,-7.035 v -30.801"
             id="path4180" />
          <path
             style="color:#000000;fill:#76b900;-inkscape-stroke:none"
             d="m 1809.78,363.121 h -11.69 v 47.527 h 9.99 l 0.56,-4.277 c 2.47,3.524 6.47,5.328 10.94,5.328 9.6,0 15.59,-6.562 15.59,-16.258 v -32.32 h -11.79 v 30.801 c 0,4.469 -2.29,7.035 -6.75,7.035 -3.99,0 -6.85,-2.566 -6.85,-7.035 v -30.801"
             id="path4182" />
          <path
             style="color:#000000;fill:#76b900;-inkscape-stroke:none"
             d="m 1847.5,363.121 v 47.527 h 11.79 v -47.527 z m -1.43,59.414 c 0,3.805 3.14,7.035 7.22,7.035 3.99,0 7.23,-3.23 7.23,-7.035 0,-3.805 -3.24,-7.226 -7.23,-7.226 -4.08,0 -7.22,3.421 -7.22,7.226"
             id="path4184" />
          <path
             style="color:#000000;fill:#76b900;-inkscape-stroke:none"
             d="m 1883.89,381.563 v -18.442 h -11.88 v 65.496 h 11.88 v -36.121 h 0.95 c 9.03,0 12.17,7.223 12.17,15.301 0,0.953 0,1.906 -0.1,2.851 h 11.99 c 0.08,-1.136 0.18,-2.277 0.18,-3.421 0,-9.122 -3.42,-17.391 -10.46,-21.957 l 13.98,-22.149 h -14.26 l -10.84,18.535 c -0.76,-0.093 -1.61,-0.093 -2.47,-0.093 h -1.14"
             id="path4186" />
          <path
             style="color:#000000;fill:#76b900;-inkscape-stroke:none"
             d="m 1035.38,269.68 c -2.57,-3.703 -6.66,-5.508 -11.03,-5.508 -9.6,0 -15.4,6.551 -15.4,16.348 v 32.128 h 11.69 v -30.89 c 0,-4.188 2.19,-6.942 6.65,-6.942 4.1,0 6.95,2.754 6.95,6.942 v 30.89 h 11.69 v -47.531 h -9.89 l -0.66,4.563"
             id="path4188" />
          <path
             style="color:#000000;fill:#76b900;-inkscape-stroke:none"
             d="m 1069.85,265.117 h -11.69 v 47.531 h 9.98 l 0.57,-4.277 c 2.47,3.516 6.46,5.32 10.94,5.32 9.6,0 15.58,-6.55 15.58,-16.25 v -32.324 h -11.78 v 30.801 c 0,4.465 -2.29,7.031 -6.75,7.031 -4,0 -6.85,-2.566 -6.85,-7.031 v -30.801"
             id="path4190" />
          <path
             style="color:#000000;fill:#76b900;-inkscape-stroke:none"
             d="m 1132.75,281.379 c 0.48,2.176 0.48,4.746 0.48,7.695 0,2.949 0,5.418 -0.48,7.703 -0.86,4.082 -3.51,6.653 -7.7,6.653 -4.18,0 -6.84,-2.571 -7.6,-6.653 -0.38,-1.902 -0.38,-4.754 -0.38,-7.703 0,-2.949 0,-5.801 0.38,-7.695 0.76,-4.094 3.42,-6.758 7.6,-6.758 4.19,0 6.84,2.664 7.7,6.758 z m 1.81,-12.551 c -2.57,-2.664 -6.28,-4.656 -11.79,-4.656 -8.55,0 -14.73,5.605 -16.54,13.875 -0.66,3.234 -0.86,5.703 -0.86,10.93 0,5.234 0.2,7.988 0.86,11.218 1.61,8.274 8.55,13.496 17.01,13.496 4.38,0 7.61,-1.23 9.99,-3.132 v 20.058 h 11.69 v -65.5 h -9.79 l -0.57,3.711"
             id="path4192" />
          <path
             style="color:#000000;fill:#76b900;-inkscape-stroke:none"
             d="m 1185.27,265.117 -9.03,38.977 c -1.14,4.941 -1.81,11.687 -1.81,16.258 v 6.847 h 12.17 v -6.847 c 0,-3.329 0.38,-9.129 1.14,-13.407 l 1.61,-8.742 c 1.34,-7.039 2.86,-13.594 2.95,-17.019 h 0.38 c 0.39,3.992 1.71,9.316 2.76,13.211 l 4.85,18.918 h 10.17 l 4.94,-17.493 c 1.52,-5.222 3.05,-11.504 3.43,-15.3 h 0.38 c 0.1,3.613 1.52,10.078 2.65,16.921 l 1.53,9.504 c 0.66,4.278 1.04,10.078 1.04,13.407 v 6.847 h 12.17 v -6.847 c 0,-4.571 -0.66,-11.219 -1.71,-16.258 l -8.46,-38.977 h -13.31 l -5.51,19.582 c -1.61,5.801 -2.09,9.414 -2.28,11.883 h -0.38 c -0.2,-2.566 -0.66,-6.082 -2.28,-11.973 l -5.23,-19.492 h -12.17"
             id="path4194" />
          <path
             style="color:#000000;fill:#76b900;-inkscape-stroke:none"
             d="m 1246.84,265.117 v 47.531 h 11.78 v -47.531 z m -1.43,59.414 c 0,3.801 3.13,7.032 7.22,7.032 3.99,0 7.22,-3.231 7.22,-7.032 0,-3.797 -3.23,-7.226 -7.22,-7.226 -4.09,0 -7.22,3.429 -7.22,7.226"
             id="path4196" />
          <path
             style="color:#000000;fill:#76b900;-inkscape-stroke:none"
             d="m 1282.56,265.117 h -11.69 v 47.531 h 9.88 l 0.67,-4.66 c 2.47,4.094 6.08,5.52 9.98,5.52 0.85,0 2.38,0 4.19,-0.285 v -11.504 c -2.95,0.566 -4.96,0.566 -6.19,0.566 -3.99,0 -6.84,-2.371 -6.84,-7.129 v -30.039"
             id="path4198" />
          <path
             style="color:#000000;fill:#76b900;-inkscape-stroke:none"
             d="m 1319.34,264.355 c -7.99,0 -13.79,5.52 -13.79,14.922 v 23.106 h -5.33 v 10.265 h 5.33 v 12.93 h 11.69 v -12.93 h 11.4 v -10.265 h -11.4 V 279.57 c 0,-2.949 1.71,-4.656 4.27,-4.656 1.81,0 3.43,0.566 4.86,1.895 l 3.41,-9.504 c -2.37,-1.903 -5.5,-2.95 -10.44,-2.95"
             id="path4200" />
          <path
             style="color:#000000;fill:#76b900;-inkscape-stroke:none"
             d="m 1357.42,292.59 c 6.84,-2.57 11.88,-5.324 11.88,-14.258 0,-8.273 -6.75,-14.16 -16.63,-14.16 -8.84,0 -15.41,3.894 -18.16,10.078 l 8.36,6.934 c 2.38,-3.899 5.32,-6.465 9.98,-6.465 2.47,0 4.47,1.043 4.47,3.328 0,2.656 -1.62,3.332 -5.7,4.844 l -3.71,1.339 c -8.74,3.231 -11.59,7.508 -11.59,14.825 0,8.367 6.93,14.636 16.44,14.636 11.41,0 16.35,-5.886 16.35,-14.824 0,-0.762 0,-1.523 -0.1,-2.285 h -11.69 c 0.1,0.481 0.1,1.047 0.1,1.426 0,4.375 -2.47,5.324 -4.85,5.324 -3.04,0 -4.56,-2.09 -4.56,-4.18 0,-2.472 1.99,-3.8 5.89,-5.226 l 3.52,-1.336"
             id="path4202" />
          <path
             style="color:#000000;fill:#76b900;-inkscape-stroke:none"
             d="m 1379.35,277.949 c -0.76,3.137 -0.95,5.801 -0.95,11.028 0,5.136 0.19,7.89 0.95,11.121 1.9,7.988 8.08,13.593 17.88,13.593 9.12,0 15.48,-3.894 17.39,-12.734 0.38,-1.902 0.57,-3.894 0.57,-6.18 v -1.425 h -11.5 v 0.761 c 0,1.328 0,2.188 -0.1,2.95 -0.56,4.179 -2.75,6.269 -6.65,6.269 -4.09,0 -5.9,-2.473 -6.56,-6.555 -0.28,-1.718 -0.28,-5.039 -0.28,-7.8 0,-2.852 0,-5.606 0.28,-7.317 0.76,-4.187 2.95,-6.941 7.41,-6.941 4.47,0 7.41,2.754 9.32,6.367 l 7.79,-7.512 c -3.51,-6.269 -10.36,-9.402 -17.29,-9.402 -10.28,0 -16.36,5.703 -18.26,13.777"
             id="path4204" />
          <path
             style="color:#000000;fill:#76b900;-inkscape-stroke:none"
             d="m 1436.07,265.117 h -11.69 v 65.5 h 11.69 v -21.008 c 2.09,2.278 5.42,4.082 9.8,4.082 9.6,0 15.58,-6.55 15.58,-16.25 v -32.324 h -11.78 v 30.801 c 0,4.465 -2.29,7.031 -6.75,7.031 -4,0 -6.85,-2.566 -6.85,-7.031 v -30.801"
             id="path4206" />
          <path
             style="color:#000000;fill:#76b900;-inkscape-stroke:none"
             d="m 1492.61,274.719 c 1.61,0.379 2.94,2 2.94,4.179 0,2.286 -1.23,3.907 -2.86,4.375 -1.04,0.282 -2.65,0.282 -4.08,0.282 -1.42,0 -2.95,0 -3.99,-0.282 -1.81,-0.468 -2.85,-2.089 -2.85,-4.375 0,-2.179 1.24,-3.8 2.85,-4.179 1.14,-0.285 2.66,-0.285 3.99,-0.285 1.53,0 2.95,0 4,0.285 z m -5.71,-9.981 c -3.23,0 -4.75,0.196 -6.75,0.762 -5.99,1.707 -9.51,6.648 -9.51,13.594 0,7.226 4.38,11.308 9.51,12.832 2,0.566 4.19,0.762 7.42,0.762 2.85,0 5.22,-0.481 7.03,-1.243 v 5.801 c 0,3.809 -2.37,6.086 -6.09,6.086 -3.23,0 -5.7,-1.523 -7.6,-5.988 l -9.12,5.988 c 3.61,7.129 8.36,10.359 17.29,10.359 11.04,0 17.31,-7.41 17.31,-15.964 v -32.61 h -9.32 l -0.47,3.332 c -0.58,-0.578 -1.14,-1.047 -1.62,-1.426 -1.61,-1.425 -4.66,-2.285 -8.08,-2.285"
             id="path4208" />
          <path
             style="color:#000000;fill:#76b900;-inkscape-stroke:none"
             d="m 1532.3,302.383 v -37.266 h -11.69 v 37.266 h -5.32 v 10.265 h 5.32 v 3.993 c 0,9.316 5.71,14.922 14.08,14.922 4.74,0 7.59,-1.043 10.26,-2.657 l -3.71,-9.414 c -1.43,0.86 -2.85,1.242 -4.84,1.242 -2.38,0 -4.1,-1.718 -4.1,-4.66 v -3.426 h 9.42 v -10.265 h -9.42"
             id="path4210" />
          <path
             style="color:#000000;fill:#76b900;-inkscape-stroke:none"
             d="m 1566.03,264.355 c -7.97,0 -13.78,5.52 -13.78,14.922 v 23.106 h -5.32 v 10.265 h 5.32 v 12.93 h 11.69 v -12.93 h 11.41 v -10.265 h -11.41 V 279.57 c 0,-2.949 1.72,-4.656 4.28,-4.656 1.81,0 3.43,0.566 4.86,1.895 l 3.41,-9.504 c -2.37,-1.903 -5.5,-2.95 -10.46,-2.95"
             id="path4212" />
          <path
             style="color:#000000;fill:#76b900;-inkscape-stroke:none"
             d="m 1617.9,290.5 v -14.258 h 8.37 c 4.08,0 6.75,3.133 6.75,7.313 0,3.996 -2.67,6.945 -6.75,6.945 z m 0,25.762 v -15.5 h 6.94 c 4.37,0 7.6,3.332 7.6,7.804 0,4.461 -3.23,7.696 -7.6,7.696 z m -12.17,-51.145 v 62.082 h 19.86 c 11.23,0 18.93,-6.847 18.93,-18.066 0,-4.375 -1.9,-9.219 -6.94,-12.735 5.6,-3.527 7.69,-8.554 7.69,-13.41 0,-11.121 -7.31,-17.871 -18.24,-17.871 h -21.3"
             id="path4214" />
          <path
             style="color:#000000;fill:#76b900;-inkscape-stroke:none"
             d="m 1665.77,297.063 c -0.19,-0.86 -0.28,-2.004 -0.28,-3.333 h 14.06 c 0,1.809 -0.09,2.754 -0.19,3.333 -0.56,3.894 -2.66,6.269 -6.74,6.269 -4.19,0 -6.19,-2.277 -6.85,-6.269 z m 24.72,2.851 c 0.56,-2.383 0.66,-4.562 0.66,-8.086 0,-2.09 0,-4.562 -0.1,-7.414 h -25.56 c 0,-1.23 0.09,-2.285 0.28,-3.23 0.76,-4.082 3.23,-6.465 7.61,-6.465 3.42,0 6.84,0.859 9.7,5.605 l 7.59,-7.316 c -4.27,-6.278 -10.64,-8.836 -17.49,-8.836 -10.16,0 -16.54,5.789 -18.53,13.777 -0.76,3.137 -0.86,5.801 -0.86,11.028 0,5.136 0.1,7.8 0.86,10.937 1.99,8.172 8.37,13.777 18.15,13.777 9.6,0 15.78,-5.703 17.69,-13.777"
             id="path4216" />
          <path
             style="color:#000000;fill:#76b900;-inkscape-stroke:none"
             d="m 1713.09,265.117 h -11.69 v 47.531 h 9.88 l 0.66,-4.66 c 2.47,4.094 6.09,5.52 9.98,5.52 0.86,0 2.39,0 4.19,-0.285 v -11.504 c -2.95,0.566 -4.95,0.566 -6.18,0.566 -3.99,0 -6.84,-2.371 -6.84,-7.129 v -30.039"
             id="path4218" />
          <path
             style="color:#000000;fill:#ffff;-inkscape-stroke:none"
             d="m 1746.33,277.102 c 0.66,-1.145 2,-1.719 3.81,-1.719 1.42,0 2.37,0.293 3.03,0.476 v -10.554 c -1.33,-0.285 -3.51,-0.469 -5.22,-0.469 -6.37,0 -10.94,2.852 -12.83,7.312 -0.86,2.102 -1.24,4.661 -1.24,7.227 v 51.242 h 11.78 V 279.66 c 0,-0.949 0.2,-1.808 0.67,-2.558"
             id="path4220" />
          <path
             style="color:#000000;fill:#ffff;-inkscape-stroke:none"
             d="m 1761.43,265.117 v 47.531 h 11.79 v -47.531 z m -1.42,59.414 c 0,3.801 3.13,7.032 7.22,7.032 3.99,0 7.22,-3.231 7.22,-7.032 0,-3.797 -3.23,-7.226 -7.22,-7.226 -4.09,0 -7.22,3.429 -7.22,7.226"
             id="path4222" />
          <path
             style="color:#000000;fill:#ffff;-inkscape-stroke:none"
             d="m 1797.16,265.117 h -11.69 v 47.531 h 9.98 l 0.56,-4.277 c 2.48,3.516 6.47,5.32 10.94,5.32 9.6,0 15.59,-6.55 15.59,-16.25 v -32.324 h -11.79 v 30.801 c 0,4.465 -2.28,7.031 -6.75,7.031 -3.99,0 -6.84,-2.566 -6.84,-7.031 v -30.801"
             id="path4224" />
          <path
             style="color:#000000;fill:#ffff;-inkscape-stroke:none"
             d="m 1035.78,153.453 h 9.39 v -25.312 c 0,-8.067 -0.36,-11.328 -1.55,-14.289 -2.36,-5.997 -7.92,-9.473 -16.13,-9.473 -8.28,0 -13.84,3.476 -16.13,9.406 -1.19,3.028 -1.62,6.289 -1.62,14.356 v 25.312 h 9.39 v -25.762 c 0,-6.066 0.08,-7.324 0.44,-8.878 0.82,-3.25 3.18,-5.625 7.92,-5.625 4.74,0 7.03,2.296 7.77,5.546 0.37,1.563 0.52,2.891 0.52,8.957 v 25.762"
             id="path4226" />
          <path
             style="color:#000000;fill:#ffff;-inkscape-stroke:none"
             d="m 1063.68,105.121 h -9.1 v 37.004 h 7.76 l 0.45,-3.332 c 1.93,2.734 5.03,4.141 8.51,4.141 7.48,0 12.14,-5.098 12.14,-12.645 v -25.168 h -9.18 v 23.977 c 0,3.476 -1.78,5.476 -5.26,5.476 -3.1,0 -5.32,-2 -5.32,-5.476 v -23.977"
             id="path4228" />
          <path
             style="color:#000000;fill:#ffff;-inkscape-stroke:none"
             d="m 1092.25,105.121 v 37.004 h 9.17 v -37.004 z m -1.12,46.25 c 0,2.961 2.44,5.481 5.63,5.481 3.1,0 5.62,-2.52 5.62,-5.481 0,-2.957 -2.52,-5.625 -5.62,-5.625 -3.19,0 -5.63,2.668 -5.63,5.625"
             id="path4230" />
          <path
             style="color:#000000;fill:#ffff;-inkscape-stroke:none"
             d="m 1119.55,105.121 c -2.81,5.703 -6.29,14.289 -8.44,19.758 -1.55,3.926 -2.44,8.582 -2.44,12.137 v 5.109 h 9.03 v -5.109 c 0,-2.586 0.67,-6.512 1.85,-10.059 1.11,-3.406 3.48,-8.437 4.51,-14.207 h 0.3 c 1.04,5.77 3.48,10.801 4.58,14.207 1.05,3.106 1.78,7.473 1.78,10.059 v 5.109 h 9.03 v -5.109 c 0,-3.555 -0.81,-8.36 -2.29,-12.137 -2.15,-5.469 -5.85,-14.055 -8.58,-19.758 h -9.33"
             id="path4232" />
          <path
             style="color:#000000;fill:#ffff;-inkscape-stroke:none"
             d="m 1154.77,129.984 c -0.14,-0.664 -0.22,-1.55 -0.22,-2.586 h 10.96 c 0,1.407 -0.08,2.149 -0.15,2.586 -0.45,3.039 -2.08,4.883 -5.25,4.883 -3.27,0 -4.82,-1.765 -5.34,-4.883 z m 19.24,2.227 c 0.45,-1.856 0.52,-3.555 0.52,-6.297 0,-1.621 0,-3.547 -0.07,-5.773 h -19.91 c 0,-0.957 0.08,-1.778 0.22,-2.508 0.6,-3.184 2.52,-5.039 5.92,-5.039 2.67,0 5.33,0.672 7.55,4.375 l 5.92,-5.703 c -3.33,-4.883 -8.28,-6.887 -13.61,-6.887 -7.92,0 -12.88,4.512 -14.44,10.734 -0.58,2.442 -0.66,4.512 -0.66,8.582 0,3.996 0.08,6.075 0.66,8.516 1.56,6.359 6.52,10.723 14.14,10.723 7.47,0 12.29,-4.434 13.76,-10.723"
             id="path4234" />
          <path
             style="color:#000000;fill:#ffff;-inkscape-stroke:none"
             d="m 1191.19,105.121 h -9.1 v 37.004 h 7.69 l 0.52,-3.625 c 1.93,3.184 4.74,4.289 7.77,4.289 0.67,0 1.85,0 3.26,-0.215 v -8.957 c -2.3,0.442 -3.85,0.442 -4.82,0.442 -3.1,0 -5.32,-1.848 -5.32,-5.547 v -23.391"
             id="path4236" />
          <path
             style="color:#000000;fill:#ffff;-inkscape-stroke:none"
             d="m 1222.26,126.508 c 5.34,-2 9.25,-4.141 9.25,-11.102 0,-6.437 -5.25,-11.027 -12.95,-11.027 -6.87,0 -11.98,3.039 -14.13,7.844 l 6.52,5.41 c 1.84,-3.039 4.14,-5.039 7.76,-5.039 1.92,0 3.49,0.82 3.49,2.597 0,2.071 -1.26,2.586 -4.45,3.77 l -2.89,1.035 c -6.8,2.52 -9.02,5.848 -9.02,11.543 0,6.512 5.4,11.395 12.8,11.395 8.88,0 12.73,-4.579 12.73,-11.543 0,-0.586 0,-1.18 -0.07,-1.778 h -9.1 c 0.06,0.371 0.06,0.821 0.06,1.114 0,3.41 -1.92,4.14 -3.76,4.14 -2.38,0 -3.56,-1.621 -3.56,-3.25 0,-1.926 1.55,-2.961 4.59,-4.074 l 2.73,-1.035"
             id="path4238" />
          <path
             style="color:#000000;fill:#ffff;-inkscape-stroke:none"
             d="m 1239.14,105.121 v 37.004 h 9.17 v -37.004 z m -1.11,46.25 c 0,2.961 2.44,5.481 5.62,5.481 3.11,0 5.63,-2.52 5.63,-5.481 0,-2.957 -2.52,-5.625 -5.63,-5.625 -3.18,0 -5.62,2.668 -5.62,5.625"
             id="path4240" />
          <path
             style="color:#000000;fill:#ffff;-inkscape-stroke:none"
             d="m 1269.71,104.527 c -6.22,0 -10.74,4.297 -10.74,11.621 v 17.989 h -4.15 v 7.988 h 4.15 v 10.066 h 9.11 v -10.066 h 8.87 v -7.988 h -8.87 v -17.766 c 0,-2.293 1.32,-3.621 3.33,-3.621 1.4,0 2.66,0.438 3.76,1.473 l 2.67,-7.403 c -1.84,-1.472 -4.29,-2.293 -8.13,-2.293"
             id="path4242" />
          <path
             style="color:#000000;fill:#ffff;-inkscape-stroke:none"
             d="m 1283.61,91.3516 v 8.3711 c 0.96,-0.1485 1.93,-0.1485 3.25,-0.1485 2.22,0 3.63,0.5858 5.11,3.8478 l 1.04,2.297 c -3.26,6.875 -6.96,14.726 -8.96,19.531 -1.78,4.219 -2.29,7.918 -2.29,11.621 v 5.254 h 9.39 v -5.254 c 0,-2.59 0.45,-5.625 1.63,-8.808 1.26,-3.477 3.78,-8.438 4.74,-14.133 h 0.3 c 1.1,6.144 3.62,11.398 4.66,14.133 1.26,3.261 1.63,6.218 1.63,8.808 v 5.254 h 9.33 v -5.254 c 0,-3.703 -0.6,-7.695 -2.23,-11.621 -2.36,-5.773 -7.47,-17.91 -11.03,-25.156 -2.73,-5.6252 -5.99,-9.1799 -12.36,-9.1799 -0.88,0 -1.92,0 -4.21,0.4375"
             id="path4244" />
          <path
             style="color:#000000;fill:#ffff;-inkscape-stroke:none"
             d="m 1354.41,117.035 c 0.52,2.219 0.52,4.445 0.52,6.66 0,2.149 0,4.512 -0.52,6.739 -0.58,2.363 -2.44,4.433 -5.69,4.433 -3.18,0 -5.19,-1.992 -5.7,-4.656 -0.37,-2.004 -0.44,-4.367 -0.44,-6.516 0,-2.215 0.07,-4.441 0.44,-6.433 0.51,-2.668 2.52,-4.668 5.7,-4.668 3.25,0 5.11,2.078 5.69,4.441 z m -20.2,-1.922 c -0.59,2.442 -0.67,4.512 -0.67,8.582 0,3.996 0.08,6.075 0.67,8.516 1.48,6.289 7.11,10.723 14.66,10.723 7.55,0 12.95,-4.434 14.5,-10.723 0.59,-2.441 0.66,-4.52 0.66,-8.516 0,-4.07 -0.07,-6.14 -0.66,-8.582 -1.48,-6.222 -7.18,-10.734 -14.81,-10.734 -7.47,0 -12.8,4.512 -14.35,10.734"
             id="path4246" />
          <path
             style="color:#000000;fill:#ffff;-inkscape-stroke:none"
             d="m 1382.75,134.137 v -29.016 h -9.1 v 29.016 h -4.14 v 7.988 h 4.14 v 3.105 c 0,7.254 4.44,11.622 10.96,11.622 3.69,0 5.92,-0.813 7.99,-2.071 l -2.89,-7.324 c -1.11,0.664 -2.22,0.957 -3.77,0.957 -1.86,0 -3.19,-1.328 -3.19,-3.625 v -2.664 h 7.33 v -7.988 h -7.33"
             id="path4248" />
          <path
             style="color:#000000;fill:#ffff;-inkscape-stroke:none"
             d="m 1426.56,143.453 -5.99,-19.531 h 12.06 z m -8.73,-38.332 h -9.47 v 5.332 c 0,3.547 0.96,9.024 2.29,12.871 l 10.43,30.129 h 11.18 l 10.36,-30.195 c 1.33,-3.781 2.29,-9.258 2.29,-12.805 v -5.332 h -9.39 v 5.332 c 0,1.328 -0.15,3.254 -0.45,4.953 h -16.8 c -0.29,-1.699 -0.44,-3.625 -0.44,-4.953 v -5.332"
             id="path4250" />
          <path
             style="color:#000000;fill:#ffff;-inkscape-stroke:none"
             d="m 1461.27,129.77 c -0.29,-1.485 -0.29,-3.856 -0.29,-6.075 0,-2.293 0,-4.441 0.29,-5.918 0.66,-3.183 2.73,-5.254 5.99,-5.254 3.26,0 5.41,2.071 6,5.254 0.29,1.477 0.37,3.625 0.37,5.918 0,2.219 -0.08,4.59 -0.37,6.075 -0.59,3.175 -2.74,5.175 -6,5.175 -3.26,0 -5.33,-2 -5.99,-5.175 z m -0.29,-22.872 V 91.1367 h -9.11 v 50.9883 h 7.62 l 0.45,-2.961 c 1.99,2.219 4.95,3.77 9.32,3.77 6.66,0 11.39,-4.364 12.73,-10.801 0.52,-2.586 0.67,-4.363 0.67,-8.438 0,-4.07 -0.15,-6.211 -0.67,-8.73 -1.34,-6.434 -6.59,-10.586 -13.32,-10.586 -3.33,0 -5.85,0.969 -7.69,2.519"
             id="path4252" />
          <path
             style="color:#000000;fill:#ffff;-inkscape-stroke:none"
             d="m 1499.82,129.77 c -0.29,-1.485 -0.29,-3.856 -0.29,-6.075 0,-2.293 0,-4.441 0.29,-5.918 0.67,-3.183 2.74,-5.254 6,-5.254 3.25,0 5.4,2.071 6,5.254 0.29,1.477 0.37,3.625 0.37,5.918 0,2.219 -0.08,4.59 -0.37,6.075 -0.6,3.175 -2.75,5.175 -6,5.175 -3.26,0 -5.33,-2 -6,-5.175 z m -0.29,-22.872 V 91.1367 h -9.1 v 50.9883 h 7.62 l 0.45,-2.961 c 1.99,2.219 4.95,3.77 9.31,3.77 6.66,0 11.4,-4.364 12.74,-10.801 0.51,-2.586 0.66,-4.363 0.66,-8.438 0,-4.07 -0.15,-6.211 -0.66,-8.73 -1.34,-6.434 -6.6,-10.586 -13.32,-10.586 -3.33,0 -5.85,0.969 -7.7,2.519"
             id="path4254" />
          <path
             style="color:#000000;fill:#ffff;-inkscape-stroke:none"
             d="m 1538.52,114.449 c 0.52,-0.89 1.56,-1.34 2.96,-1.34 1.12,0 1.86,0.227 2.38,0.371 v -8.21 c -1.04,-0.227 -2.75,-0.372 -4.08,-0.372 -4.96,0 -8.51,2.227 -9.99,5.704 -0.66,1.621 -0.96,3.621 -0.96,5.625 v 39.882 h 9.18 v -39.668 c 0,-0.734 0.14,-1.406 0.51,-1.992"
             id="path4256" />
          <path
             style="color:#000000;fill:#ffff;-inkscape-stroke:none"
             d="m 1549.55,105.121 v 37.004 h 9.17 v -37.004 z m -1.11,46.25 c 0,2.961 2.44,5.481 5.62,5.481 3.11,0 5.63,-2.52 5.63,-5.481 0,-2.957 -2.52,-5.625 -5.63,-5.625 -3.18,0 -5.62,2.668 -5.62,5.625"
             id="path4258" />
          <path
             style="color:#000000;fill:#ffff;-inkscape-stroke:none"
             d="m 1575.82,129.984 c -0.15,-0.664 -0.23,-1.55 -0.23,-2.586 h 10.96 c 0,1.407 -0.08,2.149 -0.14,2.586 -0.45,3.039 -2.08,4.883 -5.26,4.883 -3.26,0 -4.81,-1.765 -5.33,-4.883 z m 19.24,2.227 c 0.45,-1.856 0.52,-3.555 0.52,-6.297 0,-1.621 0,-3.547 -0.07,-5.773 h -19.92 c 0,-0.957 0.08,-1.778 0.23,-2.508 0.6,-3.184 2.52,-5.039 5.92,-5.039 2.66,0 5.33,0.672 7.55,4.375 l 5.91,-5.703 c -3.33,-4.883 -8.28,-6.887 -13.61,-6.887 -7.92,0 -12.88,4.512 -14.43,10.734 -0.59,2.442 -0.67,4.512 -0.67,8.582 0,3.996 0.08,6.075 0.67,8.516 1.55,6.359 6.51,10.723 14.14,10.723 7.47,0 12.28,-4.434 13.76,-10.723"
             id="path4260" />
          <path
             style="color:#000000;fill:#ffff;-inkscape-stroke:none"
             d="m 1623.1,117.777 c 0.38,1.7 0.38,3.703 0.38,5.996 0,2.297 0,4.219 -0.38,5.997 -0.67,3.175 -2.74,5.175 -5.99,5.175 -3.26,0 -5.33,-2 -5.92,-5.175 -0.3,-1.485 -0.3,-3.7 -0.3,-5.997 0,-2.293 0,-4.519 0.3,-5.996 0.59,-3.183 2.66,-5.254 5.92,-5.254 3.25,0 5.32,2.071 5.99,5.254 z m 1.41,-9.765 c -2,-2.078 -4.89,-3.633 -9.18,-3.633 -6.66,0 -11.47,4.367 -12.88,10.812 -0.52,2.508 -0.66,4.434 -0.66,8.504 0,4.075 0.14,6.223 0.66,8.731 1.26,6.445 6.66,10.508 13.25,10.508 3.4,0 5.92,-0.957 7.78,-2.442 v 15.617 h 9.1 v -50.988 h -7.63 l -0.44,2.891"
             id="path4262" />
          <path
             style="color:#000000;fill:#ffff;-inkscape-stroke:none"
             d="m 1654.18,114.078 7.32,5.996 c 2.3,-4.816 5.48,-6.886 9.25,-6.886 3.48,0 5.55,1.777 5.55,4.882 0,2.668 -2.14,4.512 -4.66,5.625 l -5.11,2.297 c -6.95,3.184 -10.13,7.324 -10.13,13.77 0,8.504 5.99,14.422 14.72,14.422 7.99,0 14.88,-4.364 14.88,-15.469 0,-0.664 0,-1.328 -0.07,-2.07 h -9.48 c 0.07,0.664 0.07,1.339 0.07,2.003 0,4.219 -1.55,6.883 -5.54,6.883 -3.33,0 -5.19,-2 -5.19,-5.105 0,-2.227 0.82,-4.297 4.3,-5.918 l 6.14,-2.891 c 6.95,-3.254 9.7,-7.472 9.7,-12.949 0,-8.957 -6.08,-14.289 -15.92,-14.289 -7.55,0 -12.87,3.996 -15.83,9.699"
             id="path4264" />
          <path
             style="color:#000000;fill:#ffff;-inkscape-stroke:none"
             d="m 1693.25,115.113 c -0.59,2.442 -0.74,4.512 -0.74,8.582 0,3.996 0.15,6.145 0.74,8.664 1.48,6.211 6.29,10.575 13.92,10.575 7.1,0 12.06,-3.028 13.53,-9.911 0.3,-1.484 0.45,-3.039 0.45,-4.816 v -1.102 h -8.95 v 0.586 c 0,1.036 0,1.707 -0.08,2.293 -0.44,3.262 -2.14,4.883 -5.18,4.883 -3.18,0 -4.59,-1.922 -5.1,-5.097 -0.23,-1.336 -0.23,-3.926 -0.23,-6.075 0,-2.215 0,-4.363 0.23,-5.691 0.59,-3.262 2.29,-5.41 5.77,-5.41 3.47,0 5.77,2.148 7.25,4.961 l 6.07,-5.852 c -2.74,-4.883 -8.07,-7.324 -13.47,-7.324 -8,0 -12.73,4.445 -14.21,10.734"
             id="path4266" />
          <path
             style="color:#000000;fill:#ffff;-inkscape-stroke:none"
             d="m 1727.88,105.121 v 37.004 h 9.17 v -37.004 z m -1.11,46.25 c 0,2.961 2.44,5.481 5.62,5.481 3.11,0 5.63,-2.52 5.63,-5.481 0,-2.957 -2.52,-5.625 -5.63,-5.625 -3.18,0 -5.62,2.668 -5.62,5.625"
             id="path4268" />
          <path
             style="color:#000000;fill:#ffff;-inkscape-stroke:none"
             d="m 1754.15,129.984 c -0.15,-0.664 -0.23,-1.55 -0.23,-2.586 h 10.96 c 0,1.407 -0.08,2.149 -0.14,2.586 -0.45,3.039 -2.08,4.883 -5.26,4.883 -3.26,0 -4.81,-1.765 -5.33,-4.883 z m 19.24,2.227 c 0.45,-1.856 0.52,-3.555 0.52,-6.297 0,-1.621 0,-3.547 -0.07,-5.773 h -19.92 c 0,-0.957 0.08,-1.778 0.23,-2.508 0.6,-3.184 2.52,-5.039 5.92,-5.039 2.66,0 5.33,0.672 7.55,4.375 l 5.91,-5.703 c -3.33,-4.883 -8.28,-6.887 -13.61,-6.887 -7.92,0 -12.88,4.512 -14.43,10.734 -0.59,2.442 -0.67,4.512 -0.67,8.582 0,3.996 0.08,6.075 0.67,8.516 1.55,6.359 6.51,10.723 14.14,10.723 7.47,0 12.28,-4.434 13.76,-10.723"
             id="path4270" />
          <path
             style="color:#000000;fill:#ffff;-inkscape-stroke:none"
             d="m 1790.56,105.121 h -9.11 v 37.004 h 7.77 l 0.45,-3.332 c 1.92,2.734 5.03,4.141 8.5,4.141 7.48,0 12.14,-5.098 12.14,-12.645 v -25.168 h -9.18 v 23.977 c 0,3.476 -1.78,5.476 -5.25,5.476 -3.11,0 -5.32,-2 -5.32,-5.476 v -23.977"
             id="path4272" />
          <path
             style="color:#000000;fill:#ffff;-inkscape-stroke:none"
             d="m 1818.53,115.113 c -0.59,2.442 -0.74,4.512 -0.74,8.582 0,3.996 0.15,6.145 0.74,8.664 1.48,6.211 6.29,10.575 13.92,10.575 7.1,0 12.06,-3.028 13.54,-9.911 0.3,-1.484 0.44,-3.039 0.44,-4.816 v -1.102 h -8.95 v 0.586 c 0,1.036 0,1.707 -0.08,2.293 -0.44,3.262 -2.14,4.883 -5.17,4.883 -3.19,0 -4.59,-1.922 -5.11,-5.097 -0.23,-1.336 -0.23,-3.926 -0.23,-6.075 0,-2.215 0,-4.363 0.23,-5.691 0.59,-3.262 2.29,-5.41 5.77,-5.41 3.48,0 5.77,2.148 7.26,4.961 l 6.06,-5.852 c -2.73,-4.883 -8.07,-7.324 -13.47,-7.324 -7.99,0 -12.73,4.445 -14.21,10.734"
             id="path4274" />
          <path
             style="color:#000000;fill:#ffff;-inkscape-stroke:none"
             d="m 1861.52,129.984 c -0.14,-0.664 -0.22,-1.55 -0.22,-2.586 h 10.95 c 0,1.407 -0.07,2.149 -0.14,2.586 -0.45,3.039 -2.08,4.883 -5.26,4.883 -3.26,0 -4.81,-1.765 -5.33,-4.883 z m 19.24,2.227 c 0.45,-1.856 0.52,-3.555 0.52,-6.297 0,-1.621 0,-3.547 -0.07,-5.773 h -19.91 c 0,-0.957 0.08,-1.778 0.22,-2.508 0.6,-3.184 2.52,-5.039 5.92,-5.039 2.67,0 5.33,0.672 7.55,4.375 l 5.92,-5.703 c -3.33,-4.883 -8.28,-6.887 -13.62,-6.887 -7.92,0 -12.88,4.512 -14.43,10.734 -0.59,2.442 -0.66,4.512 -0.66,8.582 0,3.996 0.07,6.075 0.66,8.516 1.55,6.359 6.51,10.723 14.14,10.723 7.47,0 12.29,-4.434 13.76,-10.723"
             id="path4276" />
          <path
             style="color:#000000;fill:#ffff;-inkscape-stroke:none"
             d="m 1904.14,126.508 c 5.33,-2 9.25,-4.141 9.25,-11.102 0,-6.437 -5.26,-11.027 -12.95,-11.027 -6.88,0 -11.98,3.039 -14.13,7.844 l 6.51,5.41 c 1.85,-3.039 4.14,-5.039 7.77,-5.039 1.92,0 3.48,0.82 3.48,2.597 0,2.071 -1.26,2.586 -4.44,3.77 l -2.89,1.035 c -6.81,2.52 -9.03,5.848 -9.03,11.543 0,6.512 5.4,11.395 12.81,11.395 8.87,0 12.72,-4.579 12.72,-11.543 0,-0.586 0,-1.18 -0.07,-1.778 h -9.1 c 0.07,0.371 0.07,0.821 0.07,1.114 0,3.41 -1.92,4.14 -3.77,4.14 -2.37,0 -3.55,-1.621 -3.55,-3.25 0,-1.926 1.55,-2.961 4.59,-4.074 l 2.73,-1.035"
             id="path4278" />
          <path
             style="color:#000000;fill:#ffff;-inkscape-stroke:none"
             d="m 797.09,425.063 h 53.148 V 318.766 H 797.09 v 106.297"
             id="path4280" />
          <path
             style="color:#000000;fill:#ffff;-inkscape-stroke:none"
             d="m 903.391,318.766 v -53.149 h -53.153 v 53.149 h 53.153 v 0"
             id="path4282" />
          <path
             style="color:#000000;fill:#ffff;-inkscape-stroke:none"
             d="m 425.043,478.215 h 53.148 v -53.152 h 53.153 v -53.149 h -53.153 v -53.148 h 53.153 v -53.149 h -53.153 c -29.351,0 -53.148,23.793 -53.148,53.149 0.207,-0.028 0,159.449 0,159.449 v 0"
             id="path4284" />
          <path
             style="color:#000000;fill:#ffff;-inkscape-stroke:none"
             d="m 584.488,425.063 h 53.153 V 318.766 h 53.152 v 106.297 h 53.148 V 318.766 H 797.09 V 265.617 H 637.641 c -29.352,0 -53.153,23.793 -53.153,53.149 v 106.297"
             id="path4286" />
          <path
             style="color:#000000;fill:#ffff;-inkscape-stroke:none"
             d="M 265.594,371.914 V 265.617 h -53.149 v 106.297 h 53.149 v 0"
             id="path4288" />
          <path
             style="color:#000000;fill:#ffff;-inkscape-stroke:none"
             d="m 265.594,478.215 v -53.152 h -53.149 v 53.152 h 53.149 v 0"
             id="path4290" />
          <path
             style="color:#000000;fill:#ffff;-inkscape-stroke:none"
             d="m 265.566,425.063 53.153,0.007 c 29.351,0 53.176,-23.804 53.176,-53.156 V 265.617 h -53.149 v 106.297 h -53.152 l -0.028,53.149 v 0"
             id="path4292" />
        </g>
      </g>
    </g>
  </g>
</svg>
